<?xml version="1.0" encoding="UTF-8"?><svg id="Laag_1" xmlns="http://www.w3.org/2000/svg" xmlns:xlink="http://www.w3.org/1999/xlink" viewBox="0 0 223.26 331.72"><defs><style>.cls-1{fill:none;}.cls-2{clip-path:url(#clippath);}.cls-3{fill:#ff3406;}</style><clipPath id="clippath"><rect class="cls-1" x="74.82" y="70.4" width="91.12" height="71.99" transform="translate(-17.81 24.45) rotate(-10.8)"/></clipPath></defs><rect class="cls-3" x="21.45" y="74.34" width="162.69" height="244.3" transform="translate(-35.01 22.75) rotate(-10.8)"/><g><path d="M104.88,237.15c-20.08,.83-33.69-11.86-38.34-25.51-2.22-6.52-3.35-13.52-4.07-20.4-.98-9.32-1.04-18.73-1.6-28.1-.13-2.26,.81-3.06,2.92-3.46,19.21-3.6,38.42-7.26,57.6-11,2.31-.45,3.29,.24,4.11,2.35,5.09,12.99,9.61,26.18,11.9,39.95,2.64,15.9-2.08,29.39-15.09,39.38-3.01,2.31-6.66,3.79-10.34,5.83,.01,.16,0,.8,.12,1.43,2.42,14.23,4.79,28.46,7.32,42.67,.52,2.95,1.56,5.82,2.46,8.69,.92,2.91,3.01,4.83,5.99,5.04,4.15,.29,8.33,.07,12.5,.07,1.32,0,2.72-.24,3.94,.11,.72,.21,1.53,1.35,1.6,2.13,.04,.55-1.04,1.29-1.75,1.76-.45,.3-1.13,.27-1.7,.38-14.34,2.74-28.68,5.47-43.02,8.21-.49,.09-1.04,.36-1.47,.24-.95-.27-1.85-.73-2.77-1.12,.41-.93,.61-2.1,1.3-2.71,.75-.67,1.95-.84,2.97-1.19,3.09-1.06,6.28-1.86,9.24-3.19,5.48-2.45,6.98-5.16,6.25-11.17-.5-4.07-1.3-8.11-2.12-12.13-2.43-11.83-4.93-23.65-7.41-35.48-.19-.89-.34-1.79-.54-2.8Zm17.47-84.99c-19.2,3.66-37.89,7.22-56.57,10.86-.55,.11-1.31,1.22-1.3,1.86,.05,13.26,.96,26.46,3.48,39.5,1.01,5.24,3.18,10.04,6.27,14.42,9.13,12.93,25.09,18.07,39.03,12.56,13.5-5.33,22.71-19.95,21.1-34.98-.84-7.77-2.89-15.47-4.96-23.05-1.93-7.08-4.61-13.96-7.05-21.18Z"/><path d="M122.35,152.16c2.44,7.22,5.11,14.1,7.05,21.18,2.07,7.58,4.13,15.27,4.96,23.05,1.62,15.03-7.59,29.65-21.1,34.98-13.94,5.5-29.9,.37-39.03-12.56-3.09-4.37-5.25-9.17-6.27-14.42-2.52-13.04-3.43-26.24-3.48-39.5,0-.64,.75-1.75,1.3-1.86,18.68-3.65,37.37-7.2,56.57-10.86Zm-52.88,39.81c.92,12.86,3.88,24.62,14.99,32.66,12.37,8.96,28.64,7.38,38.61-4.01,10.08-11.51,10.01-25.21,4.71-39.78-19.38,3.7-38.78,7.4-58.31,11.13Z"/><g class="cls-2"><path d="M120.65,79.88c-.76,6.59-3.4,11.73-8.52,16.15-8.68,7.49-16.84,15.59-25.22,23.43,3.21,3.43,6.42,6.87,9.62,10.3,9.45-8.81,18.93-17.58,28.32-26.45,2.33-2.2,4.95-3.45,8.07-3.82,2.49-.29,4.98-.57,7.48-.83,5.39-.55,10.71-1.28,15.18-4.76,21.78-20.34,43.56-40.68,65.34-61.03,.55-.89,1.14-1.75,1.63-2.68,.96-1.83,.91-3.73,.24-5.65-7.44-7.96-14.87-15.93-22.31-23.89-3.1-1.44-5.81-.37-8.43,1.3-21.78,20.34-43.56,40.68-65.34,61.03-4.28,4.81-5.35,10.85-6.04,16.88Z"/></g><path d="M88.51,129.92c1.15,1.21,2.28,2.41,3.42,3.61,.99,1.04,1.98,2.09,2.98,3.13,1.74,1.79,2.22,4.41,1.21,6.68-1,2.26-3.24,3.68-5.71,3.61-2.45-.06-4.64-1.65-5.5-3.99-.52-1.41-.52-2.83,.03-4.22,1.13-2.86,2.29-5.71,3.44-8.56,.03-.07,.07-.15,.13-.26Z"/></g></svg>