<?xml version="1.0" encoding="UTF-8"?><svg id="Laag_1" xmlns="http://www.w3.org/2000/svg" viewBox="0 0 257.99 201.89"><defs><style>.cls-1{fill:#0ee00e;}</style></defs><rect class="cls-1" x="13.65" y="21.7" width="230.69" height="158.49" transform="translate(23.09 -24.01) rotate(11.67)"/><path d="M165.57,158.91c-11.58,1.34-23.19,2.44-34.73,4.09-6.18,.88-11.84-.04-17.08-3.06-14.33-8.26-28.67-16.51-42.73-25.21-5.86-3.62-11.38-5.61-18.49-4.29-12.12,2.26-19.38,2.12-20.47-15.93-.5-8.25-1.87-16.45-2.75-24.68-.78-7.25,2.26-12.37,9.31-13.25,18.58-2.33,37.22-4.14,55.87-5.85,5.53-.51,10.35,1.68,14.88,5.24,11.67,9.2,23.69,17.96,35.57,26.9,1.35,1.02,2.72,2,4.04,3.06,5.7,4.61,6.95,11,3.14,15.95-3.79,4.93-10.44,5.43-16.23,1.09-9.32-6.99-18.52-14.16-27.94-21.02-2.04-1.48-4.83-1.94-7.27-2.87,.27,2.86-.36,6.27,1,8.46,2.44,3.93,5.66,7.63,9.28,10.53,7.37,5.91,14.75,12.13,23.05,16.44,5.16,2.68,12.1,3.15,18.11,2.74,12.79-.88,25.48-3.01,38.23-4.56,4.01-.49,8.05-.97,12.08-1.09,7.42-.21,12.61,4.15,12.98,10.59,.37,6.51-4.11,11.39-11.55,12.29-12.75,1.54-25.51,2.95-38.27,4.42Z"/><path d="M199.12,66.74l-5.37-4.19c-.5-.4-.88-.66-1.16-.79-.27-.13-.53-.15-.78-.06l-17.71,6.28,2.2-18.62c.05-.43-.23-.88-.83-1.36l-.32-.25-5.45-4.42c-.36-.28-.69-.23-1,.16-.23,.29-.37,.61-.42,.97l-3.03,26.67-23.91,8.48c-.28,.07-.54,.24-.76,.52-.34,.43-.3,.81,.13,1.15l5.38,4.29c.75,.59,1.42,.81,2.01,.64l50.24-17.82c.34-.13,.62-.34,.85-.63,.31-.39,.29-.73-.07-1.01Z"/><path d="M171.31,85.27c.06-.36-.02-.63-.24-.8-.25-.2-.7-.24-1.35-.11-.65,.12-1.64,.42-2.98,.9-1.34,.48-2.21,.78-2.61,.93-.53,.16-.94,.41-1.22,.77-.2,.25-.35,.65-.44,1.21l-1,8.69c-.06,.59,.28,1.18,1.03,1.77l5.38,4.29c.43,.34,.81,.3,1.15-.13,.23-.28,.34-.57,.34-.86l1.94-16.66Z"/><path d="M221.7,96.82c.56-2.65,.44-5.25-.36-7.82-.8-2.57-2.21-4.76-4.23-6.59l-11.16-10.11c-.24-.21-.53-.31-.88-.29-.35,.02-.65,.16-.9,.43l-4.21,4.65c-.24,.27-.36,.58-.34,.93,.02,.35,.14,.64,.38,.85l11.16,10.11c1.28,1.16,1.97,2.61,2.07,4.36,.1,1.75-.44,3.28-1.63,4.59-1.16,1.28-2.61,1.95-4.36,2.02-1.75,.07-3.26-.47-4.54-1.63l-11.16-10.11c-.24-.21-.53-.31-.88-.29-.35,.02-.65,.16-.9,.43l-15.96,17.62c-.21,.24-.31,.53-.29,.88,.02,.35,.14,.64,.38,.85l3.89,3.52c.27,.24,.57,.37,.91,.37,.34,0,.63-.14,.87-.4l10.2-11.26c.27-.3,.52-.44,.75-.42,.23,.02,.52,.2,.89,.53l5.35,4.85c2.02,1.83,4.35,3.02,6.98,3.56,2.63,.55,5.23,.42,7.79-.39,2.57-.8,4.76-2.21,6.59-4.23,1.83-2.02,3.02-4.35,3.59-7Z"/></svg>