<?xml version="1.0" encoding="utf-8"?>
<!-- Generator: Adobe Illustrator 26.5.0, SVG Export Plug-In . SVG Version: 6.00 Build 0)  -->
<svg version="1.1" id="Laag_1" xmlns="http://www.w3.org/2000/svg" xmlns:xlink="http://www.w3.org/1999/xlink" x="0px" y="0px"
	 viewBox="0 0 603 425.8" style="enable-background:new 0 0 603 425.8;" xml:space="preserve">
<g>
	<path d="M130,288.3c0.4-0.1,0.5-0.4,0.5-0.5c0-0.2-0.1-0.5-0.3-0.5c-0.1-0.1-0.3-0.1-0.6-0.1c-0.2,0-0.5,0-0.9,0l-34.8,2
		c-0.3,0-0.6,0-0.9,0.1c-0.3,0-0.5,0.1-0.6,0.1c-0.4,0.1-0.5,0.3-0.5,0.5c0,0.2,0.1,0.4,0.2,0.6c0,0,0,0,0,0
		c0.1,0.1,0.3,0.1,0.6,0.1c0.2,0,0.5,0,0.9,0l9.9-0.6l1.8,1.1l-7.8,1.3c-0.3,0.1-0.6,0.1-0.8,0.2c-0.2,0-0.5,0.1-0.6,0.5
		c0,0.2,0.1,0.4,0.2,0.6c0.1,0.1,0.3,0.2,0.6,0.2c0.2,0,0.4,0,0.7,0c0.3,0,0.6-0.1,0.9-0.1l30.6-5
		C129.6,288.4,129.8,288.4,130,288.3z M117,289.1l-8.2,1.3l-1.3-0.8L117,289.1z"/>
	<path d="M127.5,300.3c0.1,0,0.2-0.1,0.3-0.2c0.4,0.1,1,0.2,1.5,0.2c1.3,0.1,2.8,0.2,4.6,0.1c1.8-0.1,3.8-0.2,6.1-0.5
		c3.5-0.4,5.8-0.9,7.1-1.3c0.7-0.2,1.4-0.6,1.4-1.2s-0.7-1-0.9-1.1l-2.9-1.4c-0.2-0.1-0.4-0.1-0.7-0.1c-0.2,0-0.6,0-1,0.1l-0.7,0.1
		c-0.1,0-0.1,0-0.2,0l-16.5,1.9c0,0-0.1,0-0.1,0l-18.4,2.1c-0.4,0-0.7,0.1-0.9,0.2c-0.1,0-0.5,0.1-0.6,0.5c0,0.2,0.1,0.4,0.2,0.6
		c0.2,0.1,0.4,0.2,0.8,0.2c0.3,0,0.6,0,1-0.1l16.3-1.9l1.4,0.8c-0.4,0.1-1.1,0.4-2.8,0.7l-11.3,2.3c-0.3,0.1-0.5,0.1-0.6,0.2
		c-0.3,0.1-0.5,0.3-0.5,0.5c0,0.2,0.1,0.4,0.2,0.6c0.1,0.1,0.3,0.1,0.7,0.1c0,0,0,0,0,0c0.2,0,0.5,0,0.9-0.1c0.3,0,0.7-0.1,1-0.2
		l11.2-2.3C125.9,300.8,127,300.5,127.5,300.3z M127.7,297.7l14.7-1.7l2.4,1.2c0,0,0,0,0,0c-0.1,0-0.2,0.1-0.3,0.1
		c-1,0.4-2.8,0.7-5.5,1c-2.8,0.3-5.1,0.5-6.9,0.5c-2.2,0-3.1-0.3-3.6-0.6L127.7,297.7z"/>
	<path d="M169.3,310c0.2,0.1,0.5,0.1,0.8,0.1c0.3,0,0.6,0,1-0.1c0.4-0.1,0.7-0.1,0.9-0.2c0.4-0.2,0.4-0.5,0.4-0.6s0-0.4-0.4-0.6
		l-10.4-5.3c-0.2-0.1-0.4-0.1-0.7-0.1c-0.3,0-0.6,0-0.9,0.1c-0.4,0-0.6,0.1-0.8,0.2c-0.4,0.2-0.5,0.4-0.5,0.6c0,0.2,0.2,0.5,0.4,0.6
		l2.7,1.3l-36.9,5.2c-0.5,0.1-0.8,0.1-1.1,0.2c-0.1,0-0.5,0.2-0.6,0.6c0,0.2,0.1,0.5,0.3,0.6c0.2,0.1,0.4,0.2,0.8,0.2
		c0,0,0.1,0,0.1,0c0.3,0,0.7,0,1.2-0.1l38.6-5.5L169.3,310z"/>
	<path d="M151.7,328.1l-6.5-4.5l19.2-3l7.3,4.4c0.2,0.1,0.5,0.2,0.9,0.2c0.3,0,0.7,0,1.3-0.1c0.5-0.1,0.8-0.2,1-0.3
		c0.3-0.2,0.4-0.5,0.4-0.6c0-0.1,0-0.4-0.4-0.6l-6.3-3.7l14.7-2.8l8.4,4.3c0.2,0.1,0.5,0.2,0.9,0.2c0.3,0,0.7,0,1.2-0.1
		c0.5-0.1,0.8-0.2,1-0.3c0.3-0.2,0.3-0.5,0.3-0.6c0-0.1-0.1-0.4-0.4-0.6l-9-4.5c-0.5-0.2-1.2-0.2-2.4,0l-41.3,7
		c-0.6,0.1-1.1,0.2-1.4,0.3c-0.1,0.1-0.5,0.2-0.6,0.6c0,0.1,0,0.4,0.3,0.6c0,0,0,0,0,0l7.8,5.5c0.2,0.2,0.5,0.2,1,0.2c0,0,0,0,0,0
		c0.3,0,0.8,0,1.3-0.1c0.5-0.1,0.9-0.2,1.1-0.3c0.4-0.2,0.4-0.4,0.5-0.6C152,328.6,152,328.3,151.7,328.1z"/>
	<path d="M231.3,338.2c-0.3,0-1.1-0.1-1.2-0.1l-27.2,0.7l12.5-6.8c0.3-0.2,0.6-0.3,0.7-0.6c0-0.1,0.2-0.6-0.5-0.9
		c-0.2-0.1-0.5-0.2-0.9-0.2c-0.4,0-0.7,0-1.1,0.1c-0.4,0.1-0.7,0.2-1.1,0.4l-15.3,8.3l-30.9,0.9c-0.1,0-0.9,0-1.3,0.1
		c-0.4,0.1-0.7,0.2-1,0.4c-0.3,0.2-0.4,0.5-0.4,0.6c0,0.1,0,0.4,0.3,0.6c0.2,0.1,0.4,0.2,0.9,0.3c0.3,0,1.2,0.1,1.2,0.1l27.3-0.8
		c-4.4,2.7-13.3,8-14.2,8.5c-0.8,0.5-1,1.2-0.7,1.7c0.2,0.3,0.6,0.6,1.2,0.6c0.6,0,1.4-0.2,2.5-0.8L199,341l31.6-0.8
		c0.1,0,0.9,0,1.3,0c0.6-0.1,0.8-0.5,0.8-0.8C232.7,338.8,231.9,338.3,231.3,338.2z"/>
</g>
<g>
	<path d="M268.3,322.9c-1.7-0.6-3.9-0.9-6.5-0.9c-2.6,0-5.6,0.4-8.8,1l-10.6,2.2c-0.4,0.1-0.7,0.2-0.8,0.3c-0.2,0.1-0.3,0.4-0.3,0.6
		c0,0.3,0.2,0.4,0.5,0.6l17.1,6.8c0.2,0.1,0.5,0.1,0.9,0.2c0,0,0,0,0.1,0c0.3,0,0.6,0,1-0.1c0.5-0.1,0.8-0.3,0.9-0.5
		c0.1-0.1,0.1-0.4,0.1-0.5c-0.1-0.3-0.4-0.4-0.5-0.5l-5.9-2.3l8.1-1.8c3.4-0.7,5.5-1.5,6.4-2.3c0.5-0.5,0.6-0.9,0.5-1.2
		C270.2,323.9,269.6,323.4,268.3,322.9z M252.6,328.6l-6.4-2.5l7.9-1.6c2.7-0.5,5.1-0.8,7.1-0.9c2,0,3.6,0.2,4.9,0.7
		c0.9,0.3,1.1,0.5,1.1,0.5c0,0,0,0.1-0.1,0.1c-0.4,0.3-1.5,0.9-4.8,1.6L252.6,328.6z"/>
	<path d="M316.8,319.3c-0.2-0.1-0.4-0.1-0.7-0.1c-0.3,0-0.5,0-0.8,0.1l-12.8,2.9l-6.2-1.8l10.1-2.2c0.3-0.1,0.6-0.2,0.7-0.4
		c0.1-0.1,0.1-0.4,0.1-0.5c-0.1-0.3-0.4-0.4-0.6-0.4c-0.2-0.1-0.4-0.1-0.7-0.1c-0.2,0-0.5,0-0.8,0.1l-12.1,2.6l-5.4-1.6l10.7-2.2
		c0.3-0.1,0.6-0.1,0.7-0.3c0.1-0.1,0.1-0.4,0.1-0.5c-0.1-0.3-0.4-0.4-0.6-0.5c-0.2-0.1-0.4-0.1-0.7-0.1c-0.3,0-0.5,0-0.8,0.1
		l-13.4,2.7c-0.5,0.1-0.7,0.2-0.8,0.4c-0.1,0.1-0.1,0.4-0.1,0.5c0.1,0.3,0.5,0.4,0.6,0.5l17.8,5.2c0.3,0.1,0.6,0.1,0.9,0.1
		c0.3,0,0.6,0,1-0.1l13.5-3.1c0.3-0.1,0.6-0.2,0.7-0.4c0.1-0.1,0.1-0.4,0-0.5C317.3,319.5,317.1,319.4,316.8,319.3z"/>
	<path d="M354.1,311c-0.2,0-0.4-0.1-0.7-0.1l-9.1-0.6c-0.8-0.1-1.5-0.1-2.1-0.1c0.1-0.1,0.1-0.2,0.1-0.3c0-0.2,0-0.5-0.3-0.8
		c-0.4-0.4-1.1-0.6-2.3-0.9c-1.7-0.4-3.6-0.5-5.6-0.5c-2,0-4.1,0.2-6.1,0.7l-6.7,1.4c-0.3,0.1-0.6,0.2-0.7,0.4
		c-0.1,0.1-0.1,0.3,0,0.5c0.1,0.3,0.4,0.3,0.6,0.4l18.2,4.3c0.2,0.1,0.5,0.1,0.7,0.1c0,0,0,0,0,0c0.2,0,0.5,0,0.7-0.1h0
		c0.2-0.1,0.5-0.1,0.6-0.4c0.1-0.1,0.1-0.3,0-0.5c-0.1-0.3-0.5-0.4-0.7-0.5l-6-1.4l2.2-0.5c1.1-0.2,2.1-0.4,3-0.4
		c0.9-0.1,2.1,0,3.6,0.1l9.3,0.7c0.2,0,0.4,0,0.6,0c0.2,0,0.4,0,0.6-0.1c0.1,0,0.4-0.1,0.5-0.3c0.1-0.1,0.1-0.3,0-0.5
		C354.6,311.1,354.3,311,354.1,311z M339.5,309.8c-0.3,0.1-0.9,0.4-2.2,0.7l-5.9,1.3l-5.9-1.4l3.6-0.7c1.7-0.4,3.4-0.5,4.9-0.6
		c1.5,0,2.9,0.1,4.3,0.4C338.9,309.5,339.3,309.7,339.5,309.8z"/>
	<path d="M375.9,306l-18.1-3.6c-0.2,0-0.4-0.1-0.7-0.1c-0.2,0-0.4,0-0.6,0.1c-0.2,0-0.4,0.1-0.6,0.3c-0.1,0.1-0.1,0.3-0.1,0.4
		c0.1,0.4,0.5,0.5,0.7,0.5l18.1,3.6c0.2,0,0.4,0.1,0.7,0.1c0,0,0,0,0.1,0c0.2,0,0.4,0,0.6-0.1c0,0,0,0,0,0c0.1,0,0.5-0.1,0.6-0.4
		c0.1-0.2,0-0.4-0.1-0.5C376.4,306.1,376.1,306,375.9,306z"/>
	<path d="M403.4,299.8c-0.4-0.1-0.8-0.1-1.1,0l-7.2,1.6l-5.3-0.9l4.3-0.9c0.1,0,0.4-0.1,0.5-0.4c0.1-0.2,0.1-0.4,0-0.5
		c-0.1-0.3-0.4-0.3-0.7-0.4c-0.2,0-0.4,0-0.5,0c-0.2,0-0.4,0-0.6,0.1l-6.9,1.5l-4.6-0.8l4.7-1c0.1,0,0.4-0.1,0.5-0.3
		c0.1-0.1,0.1-0.3,0-0.5c-0.1-0.3-0.5-0.4-0.7-0.4c-0.2,0-0.4,0-0.5,0c-0.2,0-0.4,0-0.6,0.1l-7.8,1.6c-0.2,0-0.5,0.1-0.6,0.4
		c-0.1,0.2-0.1,0.3,0,0.5c0.1,0.3,0.4,0.3,0.7,0.4l17.3,3.1c0.3,0,0.5,0.1,0.8,0.1c0.2,0,0.5,0,0.7-0.1l7.6-1.7
		c0.1,0,0.4-0.1,0.5-0.4c0.1-0.2,0-0.4,0-0.5C403.9,299.9,403.7,299.8,403.4,299.8z"/>
	<path d="M430.8,294c-0.1-0.1-0.3-0.1-0.5-0.1l-17-2.5c-0.2,0-0.4,0-0.6,0c-0.2,0-0.3,0-0.5,0c-0.3,0.1-0.5,0.2-0.5,0.4
		c-0.1,0.2,0,0.4,0.2,0.6c0.1,0.1,0.3,0.2,0.6,0.2l6.5,1l-14.5-0.5c-0.2,0-0.4,0-0.5,0c-0.1,0-0.3,0-0.4,0c-0.4,0.1-0.5,0.3-0.5,0.5
		c0,0.2,0.1,0.4,0.2,0.6c0.1,0.1,0.3,0.1,0.6,0.2l17.3,2.7c0.2,0,0.4,0,0.6,0.1c0,0,0,0,0.1,0c0.2,0,0.3,0,0.5,0
		c0.4-0.1,0.5-0.3,0.5-0.5c0-0.2-0.1-0.5-0.3-0.6c-0.1-0.1-0.3-0.1-0.5-0.2l-7.3-1.1l15.1,0.5c0.2,0,0.4,0,0.5,0c0.2,0,0.3,0,0.4,0
		c0.2-0.1,0.5-0.3,0.5-0.5C431.1,294.3,431,294.1,430.8,294z"/>
	<path d="M450.8,288.7c-0.1-0.1-0.2-0.1-0.4-0.2c-0.1,0-0.3,0-0.4,0c-0.1,0-0.3,0-0.4,0c-0.2,0-0.3,0-0.4,0
		c-0.2,0.1-0.4,0.2-0.4,0.5c0,0.1,0,0.2,0.1,0.3c-0.1,0-0.3,0.1-0.5,0.2c-0.8,0.2-1.7,0.3-2.9,0.3c-1.2,0-2.5,0-4-0.1
		c-1.5-0.1-3.1-0.3-4.7-0.5c-1.6-0.2-2.9-0.4-3.7-0.7c-0.1,0-0.2-0.1-0.4-0.1c0.1,0,0.2,0,0.2-0.1c0.6-0.1,1.2-0.2,2-0.3
		c0.7-0.1,1.5-0.1,2.5-0.1c0.2,0,0.4,0,0.5,0c0.1,0,0.4,0,0.5-0.3c0.1-0.1,0.1-0.3,0-0.5c-0.1-0.3-0.4-0.3-0.5-0.3
		c-0.1,0-0.2,0-0.4-0.1c-0.1,0-0.3,0-0.5,0c-1,0-2,0-2.9,0.1c-0.9,0.1-1.7,0.2-2.4,0.3c-0.9,0.2-1.3,0.4-1.6,0.6
		c-0.3,0.3-0.3,0.5-0.2,0.7c0.1,0.4,0.5,0.7,0.6,0.7c0.4,0.2,1,0.4,2,0.6c0.9,0.2,2,0.4,3.4,0.6c1.9,0.3,3.7,0.4,5.4,0.6
		c1.2,0.1,2.3,0.1,3.4,0.1c0.5,0,0.9,0,1.4,0c1.4,0,2.6-0.2,3.6-0.4c0.8-0.2,1.2-0.4,1.5-0.6c0.2-0.2,0.3-0.4,0.2-0.6
		C451.3,289,450.9,288.8,450.8,288.7z"/>
	<path d="M469.9,284.9c-0.1-0.1-0.2-0.1-0.5-0.1c-0.4,0-0.7,0-0.9,0l-4.3,1l-4-0.5l1.2-0.3c0.2,0,0.5-0.3,0.5-0.5
		c0-0.2-0.1-0.4-0.3-0.6c-0.1-0.1-0.2-0.1-0.5-0.1c-0.3,0-0.6,0-0.9,0l-4.2,0.9l-3.4-0.4l1.4-0.3c0.2,0,0.5-0.3,0.5-0.5
		c0-0.2-0.1-0.5-0.3-0.6c-0.1-0.1-0.2-0.1-0.5-0.1c-0.3,0-0.7,0-0.9,0l-4.8,1c-0.4,0.1-0.5,0.3-0.5,0.5c0,0.2,0.1,0.5,0.3,0.6
		c0.1,0.1,0.3,0.1,0.5,0.1l15.6,2c0.2,0,0.4,0,0.6,0c0.2,0,0.3,0,0.5,0l4.6-1.1c0.2-0.1,0.5-0.3,0.5-0.5
		C470.2,285.2,470.1,285,469.9,284.9z"/>
</g>
<path d="M423,148.6l-68.9-26c-10.5-4-13.4-4.5-18,2.1l-23.7,33.2l-28-51.4c-6.5-11.5-10.8-14.3-30.3-21.7L228.2,75l-53.5,36.3
	c-4.7,3.2-4.2,12.9-4.2,12.9c-3.1-4.6-6.8-5.4-10.8-2.7l-17,11.5c-1.9,1.3-2.4,3.4-2.4,9.7v127.2c0,6.3,0.6,9.1,2.2,9.8l6.1,2.5
	c1.9,0.8,2.6-1.5,2.6-8.3V231l1.4,0.1c2.5,0.1,3.6,4.1,4.7,12l4.3,33.1c1.1,8.8,2.7,12.3,6.6,13.9l8.6,3.5c2.8,1.2,3.4-3.9,2.2-11.6
	l-7.4-45.9c-0.6-4.1-1.3-7.6-2.1-10.9c5.4-9.8,8.7-28.5,8.7-54.4c0-5.6-0.2-10.6-0.5-15.3l10.1-4.3v135.9c0,8.7,1,11.3,4.3,12.8
	l36.1,14.7l24-4.6c20.4-3.9,24-6.3,30.5-16.6l28.8-49l25.3,40.4c4.6,7.7,7.5,8,19,5.8l45.4-8.6c4.6-0.9,6.1-3.4,6.1-9.4v-33.2
	l16.2-0.3c17.5-0.3,27.6-14.7,27.6-39.8C451,174,440.7,155.3,423,148.6z M158,193.6l-6.7,1.5v-28.3l6.7-2.9
	c2.9-1.2,4.4,3.2,4.4,12.7C162.5,186.4,160.8,193,158,193.6z M210.3,277V141.6l17.9-7.6l46.9,63.1L210.3,277z M375.8,260l-33.2-56.1
	l33.2-50L375.8,260z M420.5,207l-13.2-1.6l0-28.5l13.2,3.2c5.8,1.4,9.1,7.5,9.1,15.2S426.2,207.7,420.5,207z"/>
<g>
	<path d="M497.9,176.9l-5.4-2v-12.4c0-1-0.6-1.8-1.5-2.2l-6.5-2.6V144c0-1-0.6-1.8-1.4-2.2l-10.7-4.5c-1.2-0.5-2.6,0.4-2.6,1.7v13
		l-7.9-3.1c-1.2-0.5-2.5,0.4-2.5,1.7v11.8l-6.3-2.4c-1.2-0.5-2.5,0.4-2.5,1.7v110.2c0,0.4,0.3,0.6,0.7,0.6l2.3-0.4
		c0.3-0.1,0.5-0.3,0.5-0.6V164l8.8,3.3v-14.5l10.4,4.1v-15.6l7.9,3.4V160l8,3.1v14.1l6.9,2.6v9.2c0,1,0.9,1.9,2,1.7
		c0.8-0.1,1.4-0.9,1.4-1.8v-9.8C499.5,178.1,498.9,177.2,497.9,176.9z"/>
</g>
<g>
</g>
<g>
</g>
<g>
</g>
<g>
</g>
<g>
</g>
<g>
</g>
</svg>
